<svg width="27" height="31" viewBox="0 0 27 31" fill="none" xmlns="http://www.w3.org/2000/svg">
<rect width="25" height="25" rx="12.5" fill="black"/>
<g filter="url(#filter0_d)">
<path d="M12.1478 8.93527C10.3727 8.93527 8.9409 10.3671 8.9409 12.1422C8.9409 13.9172 10.3727 15.349 12.1478 15.349C13.9229 15.349 15.3547 13.9172 15.3547 12.1422C15.3547 10.3671 13.9229 8.93527 12.1478 8.93527ZM12.1478 14.227C11.0007 14.227 10.0629 13.2921 10.0629 12.1422C10.0629 10.9923 10.9979 10.0573 12.1478 10.0573C13.2977 10.0573 14.2327 10.9923 14.2327 12.1422C14.2327 13.2921 13.2949 14.227 12.1478 14.227V14.227ZM16.2338 8.8041C16.2338 9.21996 15.8989 9.55209 15.4858 9.55209C15.07 9.55209 14.7378 9.21717 14.7378 8.8041C14.7378 8.39103 15.0728 8.0561 15.4858 8.0561C15.8989 8.0561 16.2338 8.39103 16.2338 8.8041ZM18.3578 9.56325C18.3103 8.56128 18.0815 7.67374 17.3474 6.94249C16.6162 6.21124 15.7287 5.98238 14.7267 5.93214C13.694 5.87353 10.5988 5.87353 9.56609 5.93214C8.56691 5.97959 7.67936 6.20845 6.94533 6.9397C6.21129 7.67094 5.98522 8.55849 5.93498 9.56046C5.87637 10.5931 5.87637 13.6884 5.93498 14.721C5.98243 15.723 6.21129 16.6106 6.94533 17.3418C7.67936 18.0731 8.56412 18.3019 9.56609 18.3522C10.5988 18.4108 13.694 18.4108 14.7267 18.3522C15.7287 18.3047 16.6162 18.0759 17.3474 17.3418C18.0787 16.6106 18.3076 15.723 18.3578 14.721C18.4164 13.6884 18.4164 10.5959 18.3578 9.56325V9.56325ZM17.0237 15.8291C16.806 16.3761 16.3845 16.7976 15.8347 17.0181C15.0114 17.3446 13.0577 17.2692 12.1478 17.2692C11.2379 17.2692 9.28141 17.3418 8.46085 17.0181C7.91381 16.8004 7.49237 16.3789 7.27188 15.8291C6.94533 15.0057 7.02069 13.052 7.02069 12.1422C7.02069 11.2323 6.94812 9.27578 7.27188 8.45522C7.48958 7.90818 7.91102 7.48674 8.46085 7.26625C9.2842 6.9397 11.2379 7.01506 12.1478 7.01506C13.0577 7.01506 15.0142 6.94249 15.8347 7.26625C16.3818 7.48395 16.8032 7.90539 17.0237 8.45522C17.3502 9.27857 17.2749 11.2323 17.2749 12.1422C17.2749 13.052 17.3502 15.0085 17.0237 15.8291Z" fill="white"/>
</g>
<defs>
<filter id="filter0_d" x="5" y="5" width="22.29" height="26.29" filterUnits="userSpaceOnUse" colorInterpolationFilters="sRGB">
<feFlood flood-opacity="0" result="BackgroundImageFix"/>
<feColorMatrix in="SourceAlpha" type="matrix" values="0 0 0 0 0 0 0 0 0 0 0 0 0 0 0 0 0 0 127 0"/>
<feOffset dx="4" dy="8"/>
<feGaussianBlur stdDeviation="2"/>
<feColorMatrix type="matrix" values="0 0 0 0 1 0 0 0 0 1 0 0 0 0 1 0 0 0 0.25 0"/>
<feBlend mode="normal" in2="BackgroundImageFix" result="effect1_dropShadow"/>
<feBlend mode="normal" in="SourceGraphic" in2="effect1_dropShadow" result="shape"/>
</filter>
</defs>
</svg>
