<svg width="25" height="25" viewBox="0 0 25 25" fill="none" xmlns="http://www.w3.org/2000/svg">
<rect width="25" height="25" rx="12.5" fill="black"/>
<g clip-path="url(#clip0)">
<path d="M18.5315 9.94748C18.5406 10.0744 18.5406 10.2013 18.5406 10.3282C18.5406 14.1987 15.5946 18.6585 10.2103 18.6585C8.55146 18.6585 7.0105 18.1781 5.71426 17.3442C5.94995 17.3713 6.17654 17.3804 6.4213 17.3804C7.79002 17.3804 9.05001 16.9181 10.0562 16.1295C8.76901 16.1023 7.69032 15.2593 7.31867 14.099C7.49998 14.1262 7.68126 14.1444 7.87163 14.1444C8.13449 14.1444 8.39738 14.1081 8.64211 14.0447C7.30056 13.7727 6.29437 12.5943 6.29437 11.1712V11.135C6.68413 11.3525 7.13739 11.4885 7.61778 11.5066C6.82916 10.9808 6.31251 10.0834 6.31251 9.06821C6.31251 8.52435 6.45751 8.0258 6.71133 7.5907C8.1526 9.36735 10.319 10.5276 12.7483 10.6545C12.703 10.437 12.6758 10.2104 12.6758 9.98375C12.6758 8.37025 13.9811 7.05591 15.6036 7.05591C16.4466 7.05591 17.208 7.40942 17.7429 7.98049C18.4046 7.85359 19.0391 7.60884 19.6011 7.27346C19.3835 7.95331 18.9212 8.52438 18.3139 8.88693C18.9031 8.82351 19.4742 8.66032 19.9999 8.43373C19.6011 9.01383 19.1026 9.53049 18.5315 9.94748Z" fill="white"/>
</g>
<defs>
<clipPath id="clip0">
<rect width="14.2857" height="14.2857" fill="white" transform="translate(5.71426 5.71436)"/>
</clipPath>
</defs>
</svg>
