<svg width="25" height="25" viewBox="0 0 25 25" fill="none" xmlns="http://www.w3.org/2000/svg">
<rect width="25" height="25" rx="12.5" fill="black"/>
<path d="M18.6364 8.87231C18.4806 8.28558 18.0215 7.82349 17.4385 7.66667C16.3819 7.38171 12.145 7.38171 12.145 7.38171C12.145 7.38171 7.90812 7.38171 6.85148 7.66667C6.26855 7.82351 5.80943 8.28558 5.6536 8.87231C5.37048 9.9358 5.37048 12.1547 5.37048 12.1547C5.37048 12.1547 5.37048 14.3735 5.6536 15.437C5.80943 16.0238 6.26855 16.4666 6.85148 16.6234C7.90812 16.9084 12.145 16.9084 12.145 16.9084C12.145 16.9084 16.3819 16.9084 17.4385 16.6234C18.0215 16.4666 18.4806 16.0238 18.6364 15.437C18.9195 14.3735 18.9195 12.1547 18.9195 12.1547C18.9195 12.1547 18.9195 9.9358 18.6364 8.87231V8.87231ZM10.7593 14.1692V10.1401L14.3005 12.1547L10.7593 14.1692V14.1692Z" fill="white"/>
</svg>
